<svg xmlns="http://www.w3.org/2000/svg" viewBox="0 0 200 47"><defs><style>.cls-1{fill:#393e42;}.cls-2{fill:#f5d010;}.cls-3{fill:#0094b7;}.cls-4{fill:#ef413d;}</style></defs><g id="Logo"><path class="cls-1" d="M77.27,33.44l-1.9-1.71a9.31,9.31,0,0,1-5.15,1.49,9,9,0,0,1-6.58-2.6A8.62,8.62,0,0,1,61,24.26a8.58,8.58,0,0,1,2.64-6.35,9.61,9.61,0,0,1,13.17,0,8.66,8.66,0,0,1,2.61,6.37,8.56,8.56,0,0,1-1.53,5l1.78,1.51Zm-7-3.74a5.4,5.4,0,0,0,2.27-.47l-2.82-2.4,2.43-2.72L75,26.68a5.87,5.87,0,0,0,.47-2.42A5.47,5.47,0,0,0,74,20.39a4.94,4.94,0,0,0-3.76-1.58,4.86,4.86,0,0,0-3.74,1.57A5.46,5.46,0,0,0,65,24.26a5.45,5.45,0,0,0,1.48,3.86A5,5,0,0,0,70.27,29.7Z"/><path class="cls-1" d="M90.27,33.19a7.49,7.49,0,0,1-5.52-2,7.77,7.77,0,0,1-2-5.74v-9.9h3.81v9.8a4.68,4.68,0,0,0,1,3.19,3.51,3.51,0,0,0,2.76,1.1,3.56,3.56,0,0,0,2.76-1.07,4.42,4.42,0,0,0,1-3.09V15.59h3.81v9.78a7.82,7.82,0,0,1-2,5.84A7.61,7.61,0,0,1,90.27,33.19Z"/><path class="cls-1" d="M100.08,32.92l7.42-17.45H111l7.43,17.45h-4L112.88,29h-7.33L104,32.92Zm6.83-7.25h4.61l-2.31-5.62Z"/><path class="cls-1" d="M121.37,32.92V15.59h3.52L133,26.26V15.59h3.76V32.92h-3.24l-8.4-11v11Z"/><path class="cls-1" d="M145.21,32.92V19.11h-5.27V15.59H154.3v3.52H149V32.92Z"/><path class="cls-1" d="M171.74,30.61a9.63,9.63,0,0,1-13.17,0A8.62,8.62,0,0,1,156,24.26a8.57,8.57,0,0,1,2.63-6.35,9.61,9.61,0,0,1,13.17,0,8.63,8.63,0,0,1,2.62,6.37A8.61,8.61,0,0,1,171.74,30.61Zm-10.31-2.49a4.94,4.94,0,0,0,3.76,1.58,4.86,4.86,0,0,0,3.74-1.57,5.5,5.5,0,0,0,1.46-3.87,5.42,5.42,0,0,0-1.49-3.87,4.94,4.94,0,0,0-3.76-1.58,4.88,4.88,0,0,0-3.74,1.57,5.5,5.5,0,0,0-1.46,3.88A5.46,5.46,0,0,0,161.43,28.12Z"/><path class="cls-1" d="M177.87,32.92V15.59h7.92a6.83,6.83,0,0,1,5.05,1.76,5.43,5.43,0,0,1,1.49,4,5.26,5.26,0,0,1-3.72,5.37l4.24,6.19h-4.46l-3.76-5.54h-2.95v5.54ZM181.68,24h3.86a3.18,3.18,0,0,0,2.16-.68,2.32,2.32,0,0,0,.76-1.82,2.22,2.22,0,0,0-.79-1.85,3.45,3.45,0,0,0-2.2-.63h-3.79Z"/><path class="cls-1" d="M196.19,32.92V15.59H200V32.92Z"/><circle class="cls-1" cx="24.88" cy="24.88" r="7.23"/><path class="cls-1" d="M37.2,9.39a1.8,1.8,0,0,0,.16,2.43,18,18,0,0,1,5,17.74c0,.14-.07.27-.11.41a1.8,1.8,0,0,0,1.07,2.17h0A1.82,1.82,0,0,0,45.7,31c0-.16.08-.31.13-.46a21.71,21.71,0,0,0-6-21.31,1.8,1.8,0,0,0-2.65.2Z"/><path class="cls-1" d="M5.3,22a1.78,1.78,0,0,0,2-1.34c0-.14.07-.28.11-.41A18.06,18.06,0,0,1,20.59,7.32a1.79,1.79,0,0,0,1.36-2h0a1.79,1.79,0,0,0-2.19-1.49A21.66,21.66,0,0,0,3.93,19.27l-.12.46A1.82,1.82,0,0,0,5.3,22Z"/><path class="cls-1" d="M32.14,43.3a1.82,1.82,0,0,0-2.2-1.07,18.07,18.07,0,0,1-18.12-4.85,1.82,1.82,0,0,0-2.44-.18h0a1.8,1.8,0,0,0-.2,2.65A21.69,21.69,0,0,0,31,45.69a1.8,1.8,0,0,0,1.15-2.39Z"/><circle class="cls-2" cx="38.92" cy="38.95" r="5.68"/><circle class="cls-3" cx="5.68" cy="30.05" r="5.68"/><circle class="cls-4" cx="30.02" cy="5.68" r="5.68"/></g></svg>